<?xml version="1.0"?>
<svg xmlns="http://www.w3.org/2000/svg" xmlns:xlink="http://www.w3.org/1999/xlink" version="1.1" id="Capa_1" x="0px" y="0px" viewBox="0 0 512 512" style="enable-background:new 0 0 512 512;" xml:space="preserve" width="512px" height="512px" class=""><g><g>
	<g>
		<path d="M298.667,34.133h-85.333c-4.71,0-8.533,3.823-8.533,8.533c0,4.71,3.823,8.533,8.533,8.533h85.333    c4.71,0,8.533-3.823,8.533-8.533C307.2,37.956,303.377,34.133,298.667,34.133z" data-original="#000000" class="active-path" data-old_color="#000000" fill="#F2F2F2"/>
	</g>
</g><g>
	<g>
		<path d="M407.339,0H104.67c-20.07,0-36.403,16.333-36.403,36.403v439.194c0,20.07,16.333,36.403,36.403,36.403h302.66    c20.07,0,36.403-16.333,36.403-36.395V36.403C443.733,16.333,427.401,0,407.339,0z M426.667,475.597    c0,10.658-8.678,19.336-19.328,19.336H104.67c-10.658,0-19.337-8.678-19.337-19.328V36.403c0-10.658,8.678-19.337,19.337-19.337    h302.66c10.658,0,19.337,8.678,19.337,19.337V475.597z" data-original="#000000" class="active-path" data-old_color="#000000" fill="#F2F2F2"/>
	</g>
</g><g>
	<g>
		<path d="M401.067,68.267H110.933c-4.71,0-8.533,3.823-8.533,8.533v341.333c0,4.71,3.823,8.533,8.533,8.533h290.133    c4.71,0,8.533-3.823,8.533-8.533V76.8C409.6,72.09,405.777,68.267,401.067,68.267z M392.533,409.6H119.467V85.333h273.067V409.6z" data-original="#000000" class="active-path" data-old_color="#000000" fill="#F2F2F2"/>
	</g>
</g><g>
	<g>
		<path d="M273.067,435.2h-34.133c-4.71,0-8.533,3.823-8.533,8.533v34.133c0,4.71,3.823,8.533,8.533,8.533h34.133    c4.71,0,8.533-3.823,8.533-8.533v-34.133C281.6,439.023,277.777,435.2,273.067,435.2z M264.533,469.333h-17.067v-17.067h17.067    V469.333z" data-original="#000000" class="active-path" data-old_color="#000000" fill="#F2F2F2"/>
	</g>
</g><g>
	<g>
		<path d="M366.933,68.267h-68.267c-4.71,0-8.533,3.823-8.533,8.533v128c0,3.448,2.082,6.562,5.265,7.885    c3.2,1.314,6.852,0.589,9.301-1.852l28.1-28.1l28.1,28.1c1.63,1.63,3.814,2.5,6.033,2.5c1.101,0,2.21-0.213,3.268-0.649    c3.183-1.323,5.265-4.437,5.265-7.885v-128C375.467,72.09,371.644,68.267,366.933,68.267z M358.4,184.201l-19.567-19.567    c-1.664-1.664-3.849-2.5-6.033-2.5c-2.185,0-4.369,0.836-6.033,2.5L307.2,184.201V85.333h51.2V184.201z" data-original="#000000" class="active-path" data-old_color="#000000" fill="#F2F2F2"/>
	</g>
</g><g>
	<g>
		<path d="M247.467,110.933h-102.4c-4.71,0-8.533,3.823-8.533,8.533s3.823,8.533,8.533,8.533h102.4c4.71,0,8.533-3.823,8.533-8.533    S252.177,110.933,247.467,110.933z" data-original="#000000" class="active-path" data-old_color="#000000" fill="#F2F2F2"/>
	</g>
</g><g>
	<g>
		<path d="M264.533,196.267H145.067c-4.71,0-8.533,3.823-8.533,8.533c0,4.71,3.823,8.533,8.533,8.533h119.467    c4.71,0,8.533-3.823,8.533-8.533C273.067,200.09,269.244,196.267,264.533,196.267z" data-original="#000000" class="active-path" data-old_color="#000000" fill="#F2F2F2"/>
	</g>
</g><g>
	<g>
		<path d="M170.667,238.933h-25.6c-4.71,0-8.533,3.823-8.533,8.533s3.823,8.533,8.533,8.533h25.6c4.71,0,8.533-3.823,8.533-8.533    S175.377,238.933,170.667,238.933z" data-original="#000000" class="active-path" data-old_color="#000000" fill="#F2F2F2"/>
	</g>
</g><g>
	<g>
		<path d="M366.933,238.933H204.8c-4.71,0-8.533,3.823-8.533,8.533S200.09,256,204.8,256h162.133c4.71,0,8.533-3.823,8.533-8.533    S371.644,238.933,366.933,238.933z" data-original="#000000" class="active-path" data-old_color="#000000" fill="#F2F2F2"/>
	</g>
</g><g>
	<g>
		<path d="M366.933,281.6h-25.6c-4.71,0-8.533,3.823-8.533,8.533s3.823,8.533,8.533,8.533h25.6c4.71,0,8.533-3.823,8.533-8.533    S371.644,281.6,366.933,281.6z" data-original="#000000" class="active-path" data-old_color="#000000" fill="#F2F2F2"/>
	</g>
</g><g>
	<g>
		<path d="M307.2,281.6H145.067c-4.71,0-8.533,3.823-8.533,8.533s3.823,8.533,8.533,8.533H307.2c4.71,0,8.533-3.823,8.533-8.533    S311.91,281.6,307.2,281.6z" data-original="#000000" class="active-path" data-old_color="#000000" fill="#F2F2F2"/>
	</g>
</g><g>
	<g>
		<path d="M366.933,366.933h-25.6c-4.71,0-8.533,3.823-8.533,8.533s3.823,8.533,8.533,8.533h25.6c4.71,0,8.533-3.823,8.533-8.533    S371.644,366.933,366.933,366.933z" data-original="#000000" class="active-path" data-old_color="#000000" fill="#F2F2F2"/>
	</g>
</g><g>
	<g>
		<path d="M307.2,366.933H145.067c-4.71,0-8.533,3.823-8.533,8.533s3.823,8.533,8.533,8.533H307.2c4.71,0,8.533-3.823,8.533-8.533    S311.91,366.933,307.2,366.933z" data-original="#000000" class="active-path" data-old_color="#000000" fill="#F2F2F2"/>
	</g>
</g><g>
	<g>
		<path d="M170.667,324.267h-25.6c-4.71,0-8.533,3.823-8.533,8.533c0,4.71,3.823,8.533,8.533,8.533h25.6    c4.71,0,8.533-3.823,8.533-8.533C179.2,328.09,175.377,324.267,170.667,324.267z" data-original="#000000" class="active-path" data-old_color="#000000" fill="#F2F2F2"/>
	</g>
</g><g>
	<g>
		<path d="M366.933,324.267H204.8c-4.71,0-8.533,3.823-8.533,8.533c0,4.71,3.823,8.533,8.533,8.533h162.133    c4.71,0,8.533-3.823,8.533-8.533C375.467,328.09,371.644,324.267,366.933,324.267z" data-original="#000000" class="active-path" data-old_color="#000000" fill="#F2F2F2"/>
	</g>
</g><g>
	<g>
		<path d="M264.533,153.6H204.8c-4.71,0-8.533,3.823-8.533,8.533c0,4.71,3.823,8.533,8.533,8.533h59.733    c4.71,0,8.533-3.823,8.533-8.533C273.067,157.423,269.244,153.6,264.533,153.6z" data-original="#000000" class="active-path" data-old_color="#000000" fill="#F2F2F2"/>
	</g>
</g><g>
	<g>
		<path d="M170.667,153.6h-25.6c-4.71,0-8.533,3.823-8.533,8.533c0,4.71,3.823,8.533,8.533,8.533h25.6    c4.71,0,8.533-3.823,8.533-8.533C179.2,157.423,175.377,153.6,170.667,153.6z" data-original="#000000" class="active-path" data-old_color="#000000" fill="#F2F2F2"/>
	</g>
</g><g>
	<g>
		<path d="M332.8,68.267c-4.71,0-8.533,3.823-8.533,8.533v34.133c0,4.71,3.823,8.533,8.533,8.533c4.71,0,8.533-3.823,8.533-8.533    V76.8C341.333,72.09,337.51,68.267,332.8,68.267z" data-original="#000000" class="active-path" data-old_color="#000000" fill="#F2F2F2"/>
	</g>
</g></g> </svg>
